<svg width="1662" height="985" viewBox="0 0 1662 985" fill="none" xmlns="http://www.w3.org/2000/svg">
<path d="M452.5 33H831H1209.5H1398.75H1493.37L1588 147.875V262.75V492.5V722.25V837.125L1493.37 952H1398.75H1209.5H831H452.5H263.25H168.625L74 837.125V722.25V492.5V262.75V147.875L168.625 33H263.25H452.5Z" fill="black"/>
<rect x="748" y="952" width="656" height="25" fill="#656565"/>
<rect x="394" y="952" width="204" height="33" fill="#656565"/>
<rect x="1284" width="137" height="33" fill="#656565"/>
<path d="M0 197C0 169.386 22.3858 147 50 147H142V836H50C22.3858 836 0 813.614 0 786V197Z" fill="#242424"/>
<path d="M1662 197C1662 169.386 1639.61 147 1612 147H1520V836H1612C1639.61 836 1662 813.614 1662 786V197Z" fill="#242424"/>
<path d="M673.846 79.0001H930.564H1187.28H1364.97L1444 153.652V285.75V492.5V699.25V834.848L1364.97 906H1187.28H930.564H673.846L449.078 906L365 834.848V699.25V492.5V285.75V153.652L449.078 79L673.846 79.0001Z" fill="#979797"/>
<rect x="185" y="106" width="105" height="105" fill="#C0C0C0"/>
<rect x="185" y="240" width="105" height="104" fill="#C0C0C0"/>
<rect x="185" y="373" width="105" height="105" fill="#C0C0C0"/>
<rect x="185" y="506" width="105" height="105" fill="#C0C0C0"/>
<rect x="185" y="639" width="105" height="105" fill="#C0C0C0"/>
<rect x="185" y="772" width="105" height="105" fill="#C0C0C0"/>
<path d="M118 814.652L78 814.652L78 797.386C78 794.417 78.5859 791.82 79.7578 789.593C80.9297 787.367 82.5768 785.635 84.6992 784.398C86.8216 783.161 89.3021 782.542 92.1406 782.542C95.0052 782.542 97.4857 783.18 99.582 784.457C101.678 785.72 103.293 787.497 104.426 789.789C105.559 792.067 106.125 794.73 106.125 797.777L106.125 808.089L97.6875 808.089L97.6875 799.964C97.6875 798.688 97.4661 797.601 97.0234 796.703C96.5677 795.791 95.9232 795.095 95.0898 794.613C94.2565 794.118 93.2734 793.871 92.1406 793.871C90.9948 793.871 90.0182 794.118 89.2109 794.613C88.3906 795.095 87.7656 795.791 87.3359 796.703C86.8932 797.601 86.6719 798.688 86.6719 799.964L86.6719 803.792L118 803.792L118 814.652ZM118 778.558L78 778.558L78 767.699L93.625 767.699L93.625 753.324L78 753.324L78 742.464L118 742.464L118 753.324L102.375 753.324L102.375 767.699L118 767.699L118 778.558ZM118 726.917L118 738.636L78 725.433L78 710.589L118 697.386L118 709.105L89.0156 717.855L89.0156 718.167L118 726.917ZM102.219 729.105L102.219 707.074L110.344 707.074L110.344 729.105L102.219 729.105ZM118 693.534L78 693.534L78 676.268C78 673.299 78.5404 670.702 79.6211 668.475C80.7018 666.249 82.2578 664.517 84.2891 663.28C86.3203 662.043 88.7552 661.424 91.5937 661.424C94.4583 661.424 96.8737 662.062 98.8398 663.338C100.806 664.601 102.29 666.379 103.293 668.67C104.296 670.949 104.797 673.612 104.797 676.659L104.797 686.971L96.3594 686.971L96.3594 678.846C96.3594 677.57 96.2031 676.483 95.8906 675.584C95.5651 674.673 95.0508 673.976 94.3476 673.495C93.6445 673 92.7266 672.752 91.5937 672.752C90.4479 672.752 89.5169 673 88.8008 673.495C88.0716 673.976 87.5378 674.673 87.1992 675.584C86.8476 676.483 86.6719 677.57 86.6719 678.846L86.6719 682.674L118 682.674L118 693.534ZM99.6406 670.096L118 660.096L118 671.893L99.6406 681.659L99.6406 670.096ZM78 656.795L78 643.28L100.656 633.983L100.656 633.514L78 624.217L78 610.702L118 610.702L118 621.327L94.875 621.327L94.875 621.639L117.687 630.545L117.687 636.952L94.7187 645.858L94.7187 646.17L118 646.17L118 656.795L78 656.795ZM118 595.165L118 606.883L78 593.68L78 578.836L118 565.633L118 577.352L89.0156 586.102L89.0156 586.415L118 595.165ZM102.219 597.352L102.219 575.321L110.344 575.321L110.344 597.352L102.219 597.352ZM93 513.48L93 524.496C92.0885 524.574 91.2617 524.782 90.5195 525.121C89.7773 525.446 89.1393 525.902 88.6055 526.488C88.0586 527.061 87.6419 527.757 87.3555 528.578C87.056 529.398 86.9062 530.329 86.9062 531.371C86.9062 533.194 87.3489 534.736 88.2344 536C89.1198 537.25 90.3893 538.2 92.043 538.851C93.6966 539.489 95.6823 539.808 98 539.808C100.448 539.808 102.499 539.483 104.152 538.832C105.793 538.167 107.03 537.21 107.863 535.96C108.684 534.71 109.094 533.207 109.094 531.449C109.094 530.446 108.97 529.548 108.723 528.753C108.462 527.959 108.091 527.269 107.609 526.683C107.128 526.097 106.548 525.622 105.871 525.257C105.181 524.88 104.406 524.626 103.547 524.496L103.625 513.48C105.318 513.61 107.043 514.085 108.801 514.906C110.546 515.726 112.16 516.891 113.645 518.402C115.116 519.899 116.301 521.755 117.199 523.968C118.098 526.182 118.547 528.753 118.547 531.683C118.547 535.355 117.759 538.649 116.184 541.566C114.608 544.47 112.29 546.768 109.23 548.46C106.171 550.14 102.427 550.98 98 550.98C93.5469 550.98 89.7969 550.121 86.75 548.402C83.6901 546.683 81.3789 544.365 79.8164 541.449C78.2409 538.532 77.4531 535.277 77.4531 531.683C77.4531 529.157 77.7982 526.833 78.4883 524.71C79.1784 522.588 80.1875 520.726 81.5156 519.125C82.8307 517.523 84.4518 516.234 86.3789 515.257C88.306 514.281 90.513 513.688 93 513.48ZM98 469.803C102.453 469.803 106.21 470.669 109.27 472.401C112.316 474.133 114.628 476.47 116.203 479.413C117.766 482.355 118.547 485.637 118.547 489.256C118.547 492.902 117.759 496.196 116.184 499.139C114.595 502.069 112.277 504.4 109.23 506.131C106.171 507.85 102.427 508.709 98 508.709C93.5469 508.709 89.7969 507.85 86.75 506.131C83.6901 504.4 81.3789 502.069 79.8164 499.139C78.2409 496.196 77.4531 492.902 77.4531 489.256C77.4531 485.637 78.2409 482.355 79.8164 479.413C81.3789 476.47 83.6901 474.133 86.75 472.401C89.7969 470.669 93.5469 469.803 98 469.803ZM98 480.975C95.6042 480.975 93.5859 481.294 91.9453 481.932C90.2916 482.557 89.0416 483.488 88.1953 484.725C87.3359 485.949 86.9062 487.459 86.9062 489.256C86.9062 491.053 87.3359 492.57 88.1953 493.807C89.0416 495.031 90.2917 495.962 91.9453 496.6C93.5859 497.225 95.6042 497.538 98 497.538C100.396 497.538 102.421 497.225 104.074 496.6C105.715 495.962 106.965 495.031 107.824 493.807C108.671 492.57 109.094 491.053 109.094 489.256C109.094 487.459 108.671 485.949 107.824 484.725C106.965 483.488 105.715 482.557 104.074 481.932C102.421 481.294 100.396 480.975 98 480.975ZM78 430.169L118 430.169L118 439.232L96.9844 453.685L96.9844 453.919L118 453.919L118 464.779L78 464.779L78 455.56L98.9375 441.341L98.9375 441.029L78 441.029L78 430.169ZM90.5 403.47C89.1979 403.574 88.1823 404.063 87.4531 404.935C86.7239 405.794 86.3594 407.103 86.3594 408.861C86.3594 409.981 86.4961 410.899 86.7695 411.615C87.0299 412.318 87.388 412.839 87.8437 413.177C88.2995 413.516 88.8203 413.692 89.4062 413.705C89.888 413.731 90.3242 413.646 90.7148 413.451C91.0924 413.242 91.4375 412.917 91.75 412.474C92.0495 412.031 92.3229 411.465 92.5703 410.775C92.8177 410.085 93.039 409.264 93.2344 408.314L93.9375 405.033C94.4062 402.819 95.0247 400.925 95.7929 399.349C96.5612 397.774 97.4661 396.485 98.5078 395.482C99.5364 394.479 100.695 393.744 101.984 393.275C103.273 392.793 104.68 392.546 106.203 392.533C108.833 392.546 111.06 393.203 112.883 394.505C114.706 395.807 116.092 397.669 117.043 400.091C117.993 402.5 118.469 405.397 118.469 408.783C118.469 412.259 117.954 415.293 116.926 417.884C115.897 420.462 114.315 422.468 112.18 423.9C110.031 425.319 107.284 426.035 103.937 426.048L103.937 415.736C105.161 415.671 106.19 415.365 107.023 414.818C107.857 414.271 108.488 413.503 108.918 412.513C109.348 411.511 109.562 410.319 109.562 408.939C109.562 407.78 109.419 406.81 109.133 406.029C108.846 405.248 108.449 404.655 107.941 404.251C107.434 403.848 106.854 403.639 106.203 403.626C105.591 403.639 105.057 403.841 104.602 404.232C104.133 404.61 103.716 405.235 103.352 406.107C102.974 406.979 102.622 408.158 102.297 409.642L101.437 413.626C100.669 417.168 99.3867 419.961 97.5898 422.005C95.7799 424.037 93.3125 425.046 90.1875 425.033C87.6484 425.046 85.4284 424.369 83.5273 423.001C81.6133 421.621 80.1224 419.714 79.0547 417.279C77.987 414.831 77.4531 412.025 77.4531 408.861C77.4531 405.632 77.9935 402.839 79.0742 400.482C80.1549 398.125 81.6784 396.309 83.6445 395.033C85.5976 393.744 87.8828 393.093 90.5 393.08L90.5 403.47ZM98 349.652C102.453 349.652 106.21 350.518 109.27 352.25C112.316 353.981 114.628 356.319 116.203 359.261C117.766 362.204 118.547 365.485 118.547 369.105C118.547 372.751 117.759 376.045 116.184 378.988C114.595 381.917 112.277 384.248 109.23 385.98C106.171 387.699 102.427 388.558 98 388.558C93.5469 388.558 89.7969 387.699 86.75 385.98C83.6901 384.248 81.3789 381.917 79.8164 378.988C78.2409 376.045 77.4531 372.751 77.4531 369.105C77.4531 365.485 78.2409 362.204 79.8164 359.261C81.3789 356.319 83.6901 353.981 86.75 352.25C89.7969 350.518 93.5469 349.652 98 349.652ZM98 360.824C95.6041 360.824 93.5859 361.143 91.9453 361.781C90.2916 362.406 89.0416 363.337 88.1953 364.574C87.3359 365.798 86.9062 367.308 86.9062 369.105C86.9062 370.902 87.3359 372.419 88.1953 373.656C89.0416 374.88 90.2916 375.811 91.9453 376.449C93.5859 377.074 95.6041 377.386 98 377.386C100.396 377.386 102.421 377.074 104.074 376.449C105.715 375.811 106.965 374.88 107.824 373.656C108.671 372.419 109.094 370.902 109.094 369.105C109.094 367.308 108.671 365.798 107.824 364.574C106.965 363.337 105.715 362.406 104.074 361.781C102.421 361.143 100.396 360.824 98 360.824ZM118 344.627L78 344.627L78 327.362C78 324.393 78.5403 321.795 79.6211 319.569C80.7018 317.342 82.2578 315.611 84.289 314.374C86.3203 313.137 88.7552 312.518 91.5937 312.518C94.4583 312.518 96.8737 313.156 98.8398 314.432C100.806 315.695 102.29 317.472 103.293 319.764C104.296 322.043 104.797 324.706 104.797 327.752L104.797 338.065L96.3594 338.065L96.3594 329.94C96.3594 328.664 96.2031 327.577 95.8906 326.678C95.5651 325.767 95.0508 325.07 94.3476 324.588C93.6445 324.094 92.7265 323.846 91.5937 323.846C90.4479 323.846 89.5169 324.094 88.8008 324.588C88.0716 325.07 87.5377 325.767 87.1992 326.678C86.8476 327.577 86.6719 328.664 86.6719 329.94L86.6719 333.768L118 333.768L118 344.627ZM99.6406 321.19L118 311.19L118 322.987L99.6406 332.752L99.6406 321.19ZM86.75 308.983L78 308.983L78 274.217L86.75 274.217L86.75 286.249L118 286.249L118 296.952L86.75 296.952L86.75 308.983ZM78 259.271L118 259.271L118 270.13L78 270.13L78 259.271ZM78 230.453L78 219.593L103.625 219.593C106.672 219.593 109.309 220.322 111.535 221.781C113.749 223.226 115.461 225.244 116.672 227.835C117.87 230.427 118.469 233.434 118.469 236.859C118.469 240.309 117.87 243.33 116.672 245.921C115.461 248.513 113.749 250.531 111.535 251.976C109.309 253.408 106.672 254.125 103.625 254.125L78 254.125L78 243.265L102.687 243.265C103.924 243.265 105.031 242.992 106.008 242.445C106.971 241.898 107.727 241.143 108.273 240.179C108.82 239.203 109.094 238.096 109.094 236.859C109.094 235.609 108.82 234.502 108.273 233.539C107.727 232.575 106.971 231.82 106.008 231.273C105.031 230.726 103.924 230.453 102.687 230.453L78 230.453ZM78 214.432L78 200.917L100.656 191.62L100.656 191.151L78 181.854L78 168.338L118 168.338L118 178.963L94.875 178.963L94.875 179.276L117.687 188.182L117.687 194.588L94.7187 203.495L94.7187 203.807L118 203.807L118 214.432L78 214.432Z" fill="black" fill-opacity="0.4"/>
<path d="M1536 169.348L1576 169.348L1576 186.614C1576 189.583 1575.41 192.18 1574.24 194.407C1573.07 196.633 1571.42 198.365 1569.3 199.602C1567.18 200.839 1564.7 201.458 1561.86 201.458C1558.99 201.458 1556.51 200.82 1554.42 199.543C1552.32 198.28 1550.71 196.503 1549.57 194.211C1548.44 191.933 1547.88 189.27 1547.88 186.223L1547.88 175.911L1556.31 175.911L1556.31 184.036C1556.31 185.312 1556.53 186.399 1556.98 187.297C1557.43 188.209 1558.08 188.905 1558.91 189.387C1559.74 189.882 1560.73 190.129 1561.86 190.129C1563.01 190.129 1563.98 189.882 1564.79 189.387C1565.61 188.905 1566.23 188.209 1566.66 187.297C1567.11 186.399 1567.33 185.312 1567.33 184.036L1567.33 180.208L1536 180.208L1536 169.348ZM1536 205.442L1576 205.442L1576 216.301L1560.38 216.301L1560.38 230.676L1576 230.676L1576 241.536L1536 241.536L1536 230.676L1551.63 230.676L1551.63 216.301L1536 216.301L1536 205.442ZM1536 257.083L1536 245.364L1576 258.567L1576 273.411L1536 286.614L1536 274.895L1564.98 266.145L1564.98 265.833L1536 257.083ZM1551.78 254.895L1551.78 276.926L1543.66 276.926L1543.66 254.895L1551.78 254.895ZM1536 290.466L1576 290.466L1576 307.732C1576 310.701 1575.46 313.298 1574.38 315.525C1573.3 317.751 1571.74 319.483 1569.71 320.72C1567.68 321.957 1565.24 322.576 1562.41 322.576C1559.54 322.576 1557.13 321.938 1555.16 320.662C1553.19 319.399 1551.71 317.621 1550.71 315.33C1549.7 313.051 1549.2 310.388 1549.2 307.341L1549.2 297.029L1557.64 297.029L1557.64 305.154C1557.64 306.43 1557.8 307.517 1558.11 308.416C1558.43 309.327 1558.95 310.024 1559.65 310.505C1560.36 311 1561.27 311.248 1562.41 311.248C1563.55 311.248 1564.48 311 1565.2 310.505C1565.93 310.024 1566.46 309.327 1566.8 308.416C1567.15 307.517 1567.33 306.43 1567.33 305.154L1567.33 301.326L1536 301.326L1536 290.466ZM1554.36 313.904L1536 323.904L1536 312.107L1554.36 302.341L1554.36 313.904ZM1576 327.205L1576 340.72L1553.34 350.017L1553.34 350.486L1576 359.783L1576 373.298L1536 373.298L1536 362.673L1559.13 362.673L1559.13 362.361L1536.31 353.455L1536.31 347.048L1559.28 338.142L1559.28 337.83L1536 337.83L1536 327.205L1576 327.205ZM1536 388.835L1536 377.117L1576 390.32L1576 405.164L1536 418.367L1536 406.648L1564.98 397.898L1564.98 397.585L1536 388.835ZM1551.78 386.648L1551.78 408.679L1543.66 408.679L1543.66 386.648L1551.78 386.648ZM1561 470.52L1561 459.504C1561.91 459.426 1562.74 459.218 1563.48 458.879C1564.22 458.554 1564.86 458.098 1565.39 457.512C1565.94 456.939 1566.36 456.243 1566.64 455.422C1566.94 454.602 1567.09 453.671 1567.09 452.629C1567.09 450.806 1566.65 449.264 1565.77 448C1564.88 446.75 1563.61 445.8 1561.96 445.149C1560.3 444.511 1558.32 444.192 1556 444.192C1553.55 444.192 1551.5 444.517 1549.85 445.168C1548.21 445.833 1546.97 446.79 1546.14 448.04C1545.32 449.29 1544.91 450.793 1544.91 452.551C1544.91 453.554 1545.03 454.452 1545.28 455.247C1545.54 456.041 1545.91 456.731 1546.39 457.317C1546.87 457.903 1547.45 458.378 1548.13 458.743C1548.82 459.12 1549.59 459.374 1550.45 459.504L1550.38 470.52C1548.68 470.39 1546.96 469.915 1545.2 469.094C1543.45 468.274 1541.84 467.109 1540.36 465.598C1538.88 464.101 1537.7 462.245 1536.8 460.032C1535.9 457.818 1535.45 455.247 1535.45 452.317C1535.45 448.645 1536.24 445.351 1537.82 442.434C1539.39 439.53 1541.71 437.232 1544.77 435.54C1547.83 433.86 1551.57 433.02 1556 433.02C1560.45 433.02 1564.2 433.879 1567.25 435.598C1570.31 437.317 1572.62 439.635 1574.18 442.551C1575.76 445.468 1576.55 448.723 1576.55 452.317C1576.55 454.843 1576.2 457.167 1575.51 459.29C1574.82 461.412 1573.81 463.274 1572.48 464.875C1571.17 466.477 1569.55 467.766 1567.62 468.743C1565.69 469.719 1563.49 470.312 1561 470.52ZM1556 514.197C1551.55 514.197 1547.79 513.331 1544.73 511.599C1541.68 509.867 1539.37 507.53 1537.8 504.587C1536.23 501.645 1535.45 498.363 1535.45 494.744C1535.45 491.098 1536.24 487.804 1537.82 484.861C1539.4 481.931 1541.72 479.6 1544.77 477.869C1547.83 476.15 1551.57 475.291 1556 475.291C1560.45 475.291 1564.2 476.15 1567.25 477.869C1570.31 479.6 1572.62 481.931 1574.18 484.861C1575.76 487.804 1576.55 491.098 1576.55 494.744C1576.55 498.363 1575.76 501.645 1574.18 504.587C1572.62 507.53 1570.31 509.867 1567.25 511.599C1564.2 513.331 1560.45 514.197 1556 514.197ZM1556 503.025C1558.4 503.025 1560.41 502.706 1562.05 502.068C1563.71 501.443 1564.96 500.512 1565.8 499.275C1566.66 498.051 1567.09 496.541 1567.09 494.744C1567.09 492.947 1566.66 491.43 1565.8 490.193C1564.96 488.969 1563.71 488.038 1562.05 487.4C1560.41 486.775 1558.4 486.462 1556 486.462C1553.6 486.462 1551.58 486.775 1549.93 487.4C1548.29 488.038 1547.04 488.969 1546.18 490.193C1545.33 491.43 1544.91 492.947 1544.91 494.744C1544.91 496.541 1545.33 498.051 1546.18 499.275C1547.04 500.512 1548.29 501.443 1549.93 502.068C1551.58 502.706 1553.6 503.025 1556 503.025ZM1576 553.831L1536 553.831L1536 544.768L1557.02 530.315L1557.02 530.081L1536 530.081L1536 519.221L1576 519.221L1576 528.44L1555.06 542.659L1555.06 542.971L1576 542.971L1576 553.831ZM1563.5 580.53C1564.8 580.426 1565.82 579.937 1566.55 579.065C1567.28 578.206 1567.64 576.897 1567.64 575.139C1567.64 574.019 1567.5 573.101 1567.23 572.385C1566.97 571.682 1566.61 571.161 1566.16 570.823C1565.7 570.484 1565.18 570.308 1564.59 570.295C1564.11 570.269 1563.68 570.354 1563.29 570.549C1562.91 570.758 1562.56 571.083 1562.25 571.526C1561.95 571.969 1561.68 572.535 1561.43 573.225C1561.18 573.915 1560.96 574.736 1560.77 575.686L1560.06 578.967C1559.59 581.181 1558.98 583.075 1558.21 584.651C1557.44 586.226 1556.53 587.515 1555.49 588.518C1554.46 589.521 1553.3 590.256 1552.02 590.725C1550.73 591.207 1549.32 591.454 1547.8 591.467C1545.17 591.454 1542.94 590.797 1541.12 589.495C1539.29 588.193 1537.91 586.331 1536.96 583.909C1536.01 581.5 1535.53 578.603 1535.53 575.217C1535.53 571.741 1536.05 568.707 1537.07 566.116C1538.1 563.538 1539.68 561.532 1541.82 560.1C1543.97 558.681 1546.72 557.965 1550.06 557.952L1550.06 568.264C1548.84 568.329 1547.81 568.635 1546.98 569.182C1546.14 569.729 1545.51 570.497 1545.08 571.487C1544.65 572.489 1544.44 573.681 1544.44 575.061C1544.44 576.22 1544.58 577.19 1544.87 577.971C1545.15 578.752 1545.55 579.345 1546.06 579.749C1546.57 580.152 1547.15 580.361 1547.8 580.374C1548.41 580.361 1548.94 580.159 1549.4 579.768C1549.87 579.39 1550.28 578.765 1550.65 577.893C1551.03 577.021 1551.38 575.842 1551.7 574.358L1552.56 570.374C1553.33 566.832 1554.61 564.039 1556.41 561.995C1558.22 559.963 1560.69 558.954 1563.81 558.967C1566.35 558.954 1568.57 559.631 1570.47 560.999C1572.39 562.379 1573.88 564.286 1574.95 566.721C1576.01 569.169 1576.55 571.975 1576.55 575.139C1576.55 578.368 1576.01 581.161 1574.93 583.518C1573.85 585.875 1572.32 587.691 1570.36 588.967C1568.4 590.256 1566.12 590.907 1563.5 590.92L1563.5 580.53ZM1556 634.348C1551.55 634.348 1547.79 633.482 1544.73 631.75C1541.68 630.019 1539.37 627.681 1537.8 624.739C1536.23 621.796 1535.45 618.515 1535.45 614.895C1535.45 611.249 1536.24 607.955 1537.82 605.012C1539.4 602.083 1541.72 599.752 1544.77 598.02C1547.83 596.301 1551.57 595.442 1556 595.442C1560.45 595.442 1564.2 596.301 1567.25 598.02C1570.31 599.752 1572.62 602.083 1574.18 605.012C1575.76 607.955 1576.55 611.249 1576.55 614.895C1576.55 618.515 1575.76 621.796 1574.18 624.739C1572.62 627.681 1570.31 630.019 1567.25 631.75C1564.2 633.482 1560.45 634.348 1556 634.348ZM1556 623.176C1558.4 623.176 1560.41 622.857 1562.05 622.219C1563.71 621.594 1564.96 620.663 1565.8 619.426C1566.66 618.202 1567.09 616.692 1567.09 614.895C1567.09 613.098 1566.66 611.581 1565.8 610.344C1564.96 609.12 1563.71 608.189 1562.05 607.551C1560.41 606.926 1558.4 606.614 1556 606.614C1553.6 606.614 1551.58 606.926 1549.93 607.551C1548.29 608.189 1547.04 609.12 1546.18 610.344C1545.33 611.581 1544.91 613.098 1544.91 614.895C1544.91 616.692 1545.33 618.202 1546.18 619.426C1547.04 620.663 1548.29 621.594 1549.93 622.219C1551.58 622.857 1553.6 623.176 1556 623.176ZM1536 639.373L1576 639.373L1576 656.638C1576 659.607 1575.46 662.205 1574.38 664.431C1573.3 666.658 1571.74 668.389 1569.71 669.626C1567.68 670.863 1565.24 671.482 1562.41 671.482C1559.54 671.482 1557.13 670.844 1555.16 669.568C1553.19 668.305 1551.71 666.528 1550.71 664.236C1549.7 661.957 1549.2 659.294 1549.2 656.248L1549.2 645.935L1557.64 645.935L1557.64 654.06C1557.64 655.336 1557.8 656.423 1558.11 657.322C1558.43 658.233 1558.95 658.93 1559.65 659.412C1560.36 659.906 1561.27 660.154 1562.41 660.154C1563.55 660.154 1564.48 659.906 1565.2 659.412C1565.93 658.93 1566.46 658.233 1566.8 657.322C1567.15 656.423 1567.33 655.336 1567.33 654.06L1567.33 650.232L1536 650.232L1536 639.373ZM1554.36 662.81L1536 672.81L1536 661.013L1554.36 651.248L1554.36 662.81ZM1567.25 675.017L1576 675.017L1576 709.783L1567.25 709.783L1567.25 697.751L1536 697.751L1536 687.048L1567.25 687.048L1567.25 675.017ZM1576 724.729L1536 724.729L1536 713.87L1576 713.87L1576 724.729ZM1576 753.547L1576 764.407L1550.38 764.407C1547.33 764.407 1544.69 763.678 1542.46 762.219C1540.25 760.774 1538.54 758.756 1537.33 756.165C1536.13 753.573 1535.53 750.566 1535.53 747.141C1535.53 743.691 1536.13 740.67 1537.33 738.079C1538.54 735.487 1540.25 733.469 1542.46 732.024C1544.69 730.592 1547.33 729.875 1550.38 729.875L1576 729.875L1576 740.735L1551.31 740.735C1550.08 740.735 1548.97 741.008 1547.99 741.555C1547.03 742.102 1546.27 742.857 1545.73 743.821C1545.18 744.797 1544.91 745.904 1544.91 747.141C1544.91 748.391 1545.18 749.498 1545.73 750.461C1546.27 751.425 1547.03 752.18 1547.99 752.727C1548.97 753.274 1550.08 753.547 1551.31 753.547L1576 753.547ZM1576 769.568L1576 783.083L1553.34 792.38L1553.34 792.849L1576 802.146L1576 815.662L1536 815.662L1536 805.037L1559.13 805.037L1559.13 804.724L1536.31 795.818L1536.31 789.412L1559.28 780.505L1559.28 780.193L1536 780.193L1536 769.568L1576 769.568Z" fill="black" fill-opacity="0.4"/>
</svg>
